<svg xmlns="http://www.w3.org/2000/svg" xmlns:xlink="http://www.w3.org/1999/xlink" fill="none" version="1.1" width="512" height="512" viewBox="0 0 512 512"><defs><clipPath id="master_svg0_1_72"><rect x="0" y="0" width="512" height="512" rx="0"/></clipPath><linearGradient x1="0.5" y1="0.00016235352086368948" x2="0.5158056616783142" y2="1" id="master_svg1_1_93"><stop offset="35.57636737823486%" stop-color="#00B1BF" stop-opacity="1"/><stop offset="99.28573966026306%" stop-color="#3CFF9C" stop-opacity="1"/></linearGradient><linearGradient x1="0.5" y1="0" x2="0.5" y2="1" id="master_svg2_1_80"><stop offset="0%" stop-color="#000000" stop-opacity="0.05999999865889549"/><stop offset="100%" stop-color="#D8D8D8" stop-opacity="0.07999999821186066"/></linearGradient><linearGradient x1="0.5" y1="0.00016235352086368948" x2="0.5158056616783142" y2="1" id="master_svg3_1_93"><stop offset="35.57636737823486%" stop-color="#FFFFFF" stop-opacity="1"/><stop offset="99.28573966026306%" stop-color="#FFFFFF" stop-opacity="1"/></linearGradient><mask id="master_svg4_1_91" style="mask-type:alpha" maskUnits="userSpaceOnUse"><g><rect x="0" y="0" width="512" height="512" rx="50" fill="url(#master_svg3_1_93)" fill-opacity="1"/></g></mask><linearGradient x1="0.5" y1="0" x2="0.17307838797569275" y2="0.42510953545570374" id="master_svg5_1_84"><stop offset="0%" stop-color="#FFF0BE" stop-opacity="1"/><stop offset="100%" stop-color="#FFE2A0" stop-opacity="1"/></linearGradient><linearGradient x1="0.5" y1="0" x2="0.5" y2="1" id="master_svg6_1_007"><stop offset="0%" stop-color="#FFFFFF" stop-opacity="0.8600000143051147"/><stop offset="63.88240456581116%" stop-color="#FFFFFF" stop-opacity="1"/><stop offset="99.28571581840515%" stop-color="#ACFFF2" stop-opacity="1"/></linearGradient></defs><g clip-path="url(#master_svg0_1_72)"><g><rect x="0" y="0" width="512" height="512" rx="50" fill="url(#master_svg1_1_93)" fill-opacity="1"/></g><g transform="matrix(0.7071067690849304,-0.7071067690849304,0.7071067690849304,0.7071067690849304,-202.1740406097706,213.00633300378468)"><rect x="156.03436279296875" y="350.548828125" width="262.1084289550781" height="312.9976501464844" rx="0" fill="url(#master_svg2_1_80)" fill-opacity="1"/></g><g mask="url(#master_svg4_1_91)"><g transform="matrix(1,0,0,-1,0,888.6109008789062)" style="opacity:0.5;"><path d="M511.9948125,444.3054504394531L0.00793457,444.3054504394531L0.00793457,549.8744504394531Q3.2084325,547.6954504394531,6.4804025,545.5714504394531Q9.7523625,543.4479504394532,13.0939125,541.3802504394531Q16.4355125,539.3125504394532,19.8448125,537.3023504394531Q23.2541125,535.2920504394531,26.7292125,533.3402504394531Q30.2043125,531.3885504394532,33.7433125,529.4963504394532Q37.2822125,527.6042504394532,40.8830125,525.7728504394531Q44.4838125,523.9414504394531,48.1444125,522.1718504394531Q51.8050125,520.4021504394532,55.5233125,518.6952504394532Q59.2416125,516.9884504394531,63.0156125,515.3452504394531Q66.7896125,513.7020504394532,70.6171125,512.1234504394531Q74.4445125,510.54495043945315,78.3234125,509.0319504394531Q82.2022125,507.5188504394531,86.1302125,506.0722504394531Q90.0581125,504.6256504394531,94.0330125,503.2461504394531Q98.0079125,501.86675043945314,102.0278125,500.55535043945315Q106.0468125,499.2438504394531,110.1088125,498.0011504394531Q114.1708125,496.7584504394531,118.2738125,495.5851504394531Q122.3758125,494.4117504394531,126.5158125,493.30855043945314Q130.6558125,492.2053504394531,134.8308125,491.1728504394531Q139.0058125,490.14035043945313,143.2148125,489.1791504394531Q147.4228125,488.21795043945315,151.6628125,487.3285504394531Q155.9018125,486.4391504394531,160.1698125,485.6221504394531Q164.4368125,484.80515043945314,168.7308125,484.06085043945313Q173.0238125,483.31665043945316,177.3408125,482.6456504394531Q181.6578125,481.97455043945314,185.9958125,481.37715043945315Q190.3348125,480.7797504394531,194.6908125,480.25625043945314Q199.0478125,479.7328504394531,203.4208125,479.2835504394531Q207.7938125,478.83435043945315,212.1798125,478.4595504394531Q216.5668125,478.0847504394531,220.9648125,477.78475043945315Q225.3618125,477.4846504394531,229.7688125,477.25945043945313Q234.1748125,477.0342504394531,238.5878125,476.8840504394531Q243.0008125,476.73385043945314,247.4168125,476.6587504394531Q251.8338125,476.5836504394531,256.2518125,476.5836504394531Q260.6588125,476.5836504394531,265.0638125,476.6583504394531Q269.4698125,476.73315043945314,273.8718125,476.8825504394531Q278.2738125,477.03205043945314,282.6698125,477.2561504394531Q287.0658125,477.48025043945313,291.4528125,477.7788504394531Q295.8398125,478.0774504394531,300.2158125,478.4504504394531Q304.5918125,478.8233504394531,308.9538125,479.27045043945316Q313.3168125,479.7174504394531,317.6628125,480.2384504394531Q322.0098125,480.7593504394531,326.3368125,481.3539504394531Q330.6648125,481.94845043945315,334.9718125,482.6161504394531Q339.2788125,483.2839504394531,343.5628125,484.0246504394531Q347.8468125,484.7652504394531,352.1048125,485.5783504394531Q356.3628125,486.39145043945314,360.5918125,487.2765504394531Q364.8218125,488.1616504394531,369.0208125,489.1182504394531Q373.2208125,490.07485043945314,377.3868125,491.10245043945315Q381.5528125,492.1300504394531,385.6848125,493.22795043945314Q389.8158125,494.3259504394531,393.9098125,495.4936504394531Q398.0028125,496.66135043945314,402.0568125,497.89825043945314Q406.1108125,499.13505043945315,410.1218125,500.4402504394531Q414.1338125,501.74555043945315,418.1018125,503.1184504394531Q422.0688125,504.4914504394531,425.9898125,505.93125043945315Q429.9098125,507.3711504394531,433.7818125,508.8770504394531Q437.6538125,510.38305043945314,441.4748125,511.9542504394531Q445.2958125,513.5254504394532,449.0638125,515.1610504394531Q452.8318125,516.7966504394532,456.5438125,518.4957504394531Q460.2568125,520.1947504394532,463.9118125,521.9562504394531Q467.5668125,523.7178504394532,471.1628125,525.5408504394532Q474.7588125,527.3639504394531,478.2928125,529.2474504394531Q481.8278125,531.1310504394531,485.2988125,533.0739504394531Q488.7698125,535.0169504394531,492.1758125,537.0182504394531Q495.5808125,539.0195504394532,498.9198125,541.0780504394531Q502.2578125,543.1365504394531,505.5268125,545.2514504394532Q508.7968125,547.3654504394531,511.9948125,549.5354504394531L511.9948125,444.3054504394531Z" fill-rule="evenodd" fill="#FFEFBE" fill-opacity="1"/></g><g transform="matrix(1,0,0,-1,0,1024)"><path d="M511.9948125,512L0.00793457,512L0.00793457,648.998Q3.2084325,647.793,6.4804025,646.6179999999999Q9.7523625,645.444,13.0939125,644.3Q16.4355125,643.157,19.8448125,642.045Q23.2541125,640.934,26.7292125,639.854Q30.2043125,638.775,33.7433125,637.729Q37.2822125,636.682,40.8830125,635.67Q44.4838125,634.657,48.1444125,633.678Q51.8050125,632.7,55.5233125,631.756Q59.2416125,630.812,63.0156125,629.903Q66.7896125,628.995,70.6171125,628.122Q74.4445125,627.249,78.3234125,626.412Q82.2022125,625.576,86.1302125,624.776Q90.0581125,623.976,94.0330125,623.213Q98.0079125,622.45,102.0278125,621.725Q106.0468125,621,110.1088125,620.313Q114.1708125,619.625,118.2738125,618.977Q122.3758125,618.328,126.5158125,617.718Q130.6558125,617.108,134.8308125,616.537Q139.0058125,615.966,143.2148125,615.434Q147.4228125,614.903,151.6628125,614.4110000000001Q155.9018125,613.919,160.1698125,613.467Q164.4368125,613.015,168.7308125,612.604Q173.0238125,612.192,177.3408125,611.8212Q181.6578125,611.4502,185.9958125,611.1197999999999Q190.3348125,610.7894,194.6908125,610.5Q199.0478125,610.2105,203.4208125,609.9621Q207.7938125,609.7136,212.1798125,609.5064Q216.5668125,609.2992,220.9648125,609.1332Q225.3618125,608.9673,229.7688125,608.8428Q234.1748125,608.7183,238.5878125,608.6351999999999Q243.0008125,608.5521,247.4168125,608.5106Q251.8338125,608.4691,256.2518125,608.4691Q260.6588125,608.4691,265.0638125,608.5104Q269.4698125,608.5517,273.8718125,608.6344Q278.2738125,608.717,282.6698125,608.841Q287.0658125,608.9649,291.4528125,609.13Q295.8398125,609.2951,300.2158125,609.5014Q304.5918125,609.7076,308.9538125,609.9548Q313.3168125,610.202,317.6628125,610.4901Q322.0098125,610.7782,326.3368125,611.1069Q330.6648125,611.4357,334.9718125,611.8050000000001Q339.2788125,612.174,343.5628125,612.5840000000001Q347.8468125,612.9929999999999,352.1048125,613.443Q356.3628125,613.893,360.5918125,614.3820000000001Q364.8218125,614.871,369.0208125,615.4Q373.2208125,615.929,377.3868125,616.498Q381.5528125,617.066,385.6848125,617.673Q389.8158125,618.28,393.9098125,618.926Q398.0028125,619.572,402.0568125,620.256Q406.1108125,620.94,410.1218125,621.6610000000001Q414.1338125,622.383,418.1018125,623.142Q422.0688125,623.902,425.9898125,624.698Q429.9098125,625.494,433.7818125,626.327Q437.6538125,627.159,441.4748125,628.028Q445.2958125,628.897,449.0638125,629.802Q452.8318125,630.706,456.5438125,631.646Q460.2568125,632.585,463.9118125,633.559Q467.5668125,634.533,471.1628125,635.5409999999999Q474.7588125,636.55,478.2928125,637.591Q481.8278125,638.633,485.2988125,639.707Q488.7698125,640.782,492.1758125,641.888Q495.5808125,642.995,498.9198125,644.133Q502.2578125,645.271,505.5268125,646.441Q508.7968125,647.61,511.9948125,648.81L511.9948125,512Z" fill-rule="evenodd" fill="url(#master_svg5_1_84)" fill-opacity="1"/></g></g><g><path d="M147.062475,494.734375L137.265675,494.734375L137.265675,459.671875Q135.718775,459.929675,133.140675,459.929675Q135.460975,457.351575,136.492175,452.195275Q130.046875,462.507775,125.664075,470.242175Q124.117175,473.078175,124.374975,474.367175Q124.632775,475.398475,126.695275,475.398475Q132.109375,475.398475,136.749975,472.820275Q132.624975,479.523475,121.023435,479.007775Q111.742185,477.976575,115.867185,469.210975Q118.960935,463.539075,122.828125,457.351575Q121.023435,457.867175,119.218755,457.867175Q113.804687,457.609375,113.546875,452.710975Q113.804687,448.070275,123.859375,432.859375L134.429675,432.859375Q122.828125,451.421875,122.828125,453.226575Q122.828125,454.773475,124.374975,454.773475Q126.437475,451.937475,127.984375,449.359375L137.523475,449.359375Q138.039075,447.039075,139.328075,442.656255Q140.874975,436.468755,141.648475,433.117187L151.445275,433.117187Q150.929675,435.953125,149.382775,441.882815Q148.351575,445.234375,148.093775,446.781275L175.164075,446.781275L175.164075,448.843775L164.851575,448.843775L164.851575,460.960975L174.132775,460.960975L174.132775,463.281275L164.851575,463.281275L164.851575,475.398475L174.132775,475.398475L174.132775,477.460975L164.851575,477.460975L164.851575,489.835975L175.937475,489.835975L175.937475,492.156275L147.062475,492.156275L147.062475,494.734375ZM153.507775,433.375L163.562475,433.375Q165.109375,440.593755,167.945275,444.460975Q156.343775,445.234375,155.054675,439.820315Q154.796875,439.046875,154.281275,436.468755Q153.765675,434.406255,153.507775,433.375ZM147.062475,477.460975L147.062475,489.835975L155.054675,489.835975L155.054675,477.460975L147.062475,477.460975ZM147.320275,448.843775Q147.320275,449.359375,147.062475,450.132775L147.062475,460.960975L155.054675,460.960975L155.054675,448.843775L147.320275,448.843775ZM147.062475,463.281275L147.062475,475.398475L155.054675,475.398475L155.054675,463.281275L147.062475,463.281275ZM114.0625,491.640575L114.0625,488.289075Q130.046875,488.804675,136.492175,483.648475Q132.882775,491.898475,114.0625,491.640575ZM219.773875,493.960975L209.46097500000002,493.960975L209.46097500000002,471.015575L219.773875,471.015575L219.773875,474.367175Q220.80487499999998,471.015575,225.702875,471.015575L239.624875,471.015575Q248.132875,470.757775,247.616875,477.718775L247.616875,486.742175Q248.132875,494.476575,239.624875,493.960975L225.18787500000002,493.960975Q220.28887500000002,493.960975,219.773875,490.867175L219.773875,493.960975ZM202.75777499999998,494.734375L192.44527499999998,494.734375L192.44527499999998,460.187475Q191.929675,460.187475,190.38277499999998,460.187475Q188.83597500000002,460.445275,188.062475,460.445275Q192.703075,455.546875,196.054675,432.859375L206.88277499999998,432.859375Q205.851575,438.015625,204.046875,446.781275Q203.27347500000002,450.132775,202.75777499999998,452.195275L202.75777499999998,494.734375ZM223.898875,473.593775Q220.546875,473.335975,219.773875,475.914075L219.773875,489.320275Q220.03087499999998,491.382775,223.382875,491.382775L233.694875,491.382775Q237.56287500000002,491.640575,237.30487499999998,487.773475L237.30487499999998,477.203175Q237.56287500000002,473.335975,233.694875,473.593775L223.898875,473.593775ZM250.194875,443.171875L205.593775,443.171875L205.593775,440.593755L222.093875,440.593755L222.093875,432.859375L234.726875,432.859375L234.726875,440.593755L250.194875,440.593755L250.194875,443.171875ZM247.101875,453.742175L209.46097500000002,453.742175L209.46097500000002,451.164075L247.101875,451.164075L247.101875,453.742175ZM247.101875,464.054675L209.46097500000002,464.054675L209.46097500000002,461.476575L247.101875,461.476575L247.101875,464.054675ZM323.93787499999996,482.359375L300.734875,482.359375L300.734875,483.906275Q301.507875,495.765575,291.194875,494.992175Q280.882875,494.476575,273.66387499999996,487.257775Q279.593875,489.062475,284.491875,488.804675Q290.16387499999996,489.578175,289.90587500000004,482.359375L262.06287499999996,482.359375L262.06287499999996,479.781275L289.90587500000004,479.781275L289.90587500000004,474.367175L265.15587500000004,474.367175L265.15587500000004,471.789075L289.90587500000004,471.789075L289.90587500000004,466.632775L264.124875,466.632775L264.124875,464.054675L301.765875,464.054675Q307.694875,464.312475,308.726875,460.703175L323.421875,460.703175Q319.55487500000004,466.890575,312.851875,466.632775L300.734875,466.632775L300.734875,471.789075L320.843875,471.789075L320.843875,474.367175L300.734875,474.367175L300.734875,479.781275L323.93787499999996,479.781275L323.93787499999996,482.359375ZM273.921875,458.640575L263.351875,458.640575L263.351875,442.656255L273.921875,442.656255L273.921875,447.039075Q274.694875,442.398435,281.65587500000004,442.656255L287.585875,442.656255L287.585875,432.859375L298.15587500000004,432.859375L298.15587500000004,442.656255L313.108875,442.656255Q323.16387499999996,442.140625,322.648875,449.359375L322.648875,454.257775Q322.390875,456.578175,320.843875,458.898475L310.78887499999996,458.898475Q310.78887499999996,458.640575,311.046875,458.382775Q312.077875,455.804675,312.077875,454.773475L312.077875,449.617175Q312.335875,444.718775,307.17987500000004,445.234375L279.077875,445.234375Q275.468875,444.976575,273.921875,448.843775L273.921875,458.640575ZM287.069875,460.445275L277.78887499999996,460.445275L277.78887499999996,448.843775L287.069875,448.843775L287.069875,451.937475Q287.843875,448.585975,292.741875,448.843775L301.249875,448.843775Q308.468875,448.585975,308.210875,453.484375L308.210875,455.546875Q308.468875,460.703175,301.765875,460.445275L292.741875,460.445275Q287.327875,460.703175,287.069875,457.609375L287.069875,460.445275ZM307.694875,434.406255L318.78087500000004,434.406255Q318.78087500000004,434.921875,318.523875,435.695315Q318.265875,436.726565,318.007875,437.242185Q316.976875,442.914075,302.796875,441.624995Q306.40587500000004,440.078125,307.694875,434.406255ZM267.734875,434.406255L278.819875,434.406255Q280.108875,440.078125,283.718875,441.624995Q269.53887499999996,442.914075,268.507875,437.242185Q268.507875,436.726565,268.249875,435.695315Q267.991875,434.921875,267.734875,434.406255ZM290.93787499999996,451.421875Q288.101875,451.421875,287.069875,453.484375L287.069875,455.804675Q287.843875,458.124975,290.16387499999996,457.867175L295.835875,457.867175Q298.92987500000004,457.867175,298.671875,455.289075L298.671875,453.742175Q298.92987500000004,451.164075,295.319875,451.421875L290.93787499999996,451.421875ZM377.054875,441.882815L371.898875,441.882815L371.898875,456.062475L378.343875,456.062475L378.343875,435.437495L386.077875,435.437495L386.077875,438.273435Q387.108875,435.953125,389.687875,435.953125L391.491875,435.953125Q396.648875,435.695315,396.390875,442.656255L396.390875,483.132775Q396.390875,489.320275,390.718875,489.320275Q387.882875,489.062475,386.077875,485.968775L386.077875,494.734375L378.343875,494.734375L378.343875,482.874975Q374.476875,491.640575,351.53087500000004,490.609375L351.53087500000004,487.515575L354.624875,487.515575L354.624875,464.312475L361.843875,464.312475L361.843875,487.257775Q362.358875,487.257775,363.132875,487.257775Q363.90587500000004,486.999975,364.16387499999996,486.999975L364.16387499999996,458.382775L353.335875,458.382775L353.335875,456.062475L364.16387499999996,456.062475L364.16387499999996,441.882815L363.90587500000004,441.882815Q363.132875,445.749975,362.358875,449.617175Q361.843875,455.031275,351.273875,455.031275Q350.241875,458.382775,349.468875,461.992175Q349.210875,462.249975,349.210875,462.765575L349.210875,494.734375L340.444875,494.734375L340.444875,469.210975Q338.382875,469.210975,336.06287499999996,469.210975Q339.92987500000004,465.859375,343.28087500000004,450.132775L352.30487500000004,450.132775Q352.30487500000004,450.906275,351.78887499999996,452.195275Q351.53087500000004,453.999975,351.273875,455.031275Q354.108875,450.906275,357.460875,433.117187L365.710875,433.117187Q365.194875,436.210935,364.421875,439.304685L377.054875,439.304685L377.054875,441.882815ZM345.085875,432.859375L354.624875,432.859375Q352.30487500000004,440.078125,350.499875,443.429675Q347.40587500000004,450.906275,336.06287499999996,449.874975Q339.671875,447.296875,345.085875,432.859375ZM377.312875,470.242175L371.898875,470.242175L371.898875,485.453175Q375.765875,484.421875,378.343875,482.101575L378.343875,458.382775L371.898875,458.382775L371.898875,467.921875L377.312875,467.921875L377.312875,470.242175ZM388.913875,480.812475L388.913875,441.367185Q388.913875,438.531255,387.366875,438.789065Q386.593875,438.789065,386.077875,440.078125L386.077875,483.132775Q386.593875,483.390575,387.624875,483.390575Q389.171875,483.648475,388.913875,480.812475Z" fill="#A34C07" fill-opacity="1"/></g><g><g><path d="M145,328L145,88Q145,87.1408,145.042159,86.2826Q145.084318,85.4245,145.168535,84.5694Q145.252751,83.71430000000001,145.378822,82.8644Q145.504893,82.0145,145.672515,81.1718Q145.840137,80.3291,146.04891,79.4957Q146.25767,78.6622,146.50709,77.84Q146.7565,77.0178,147.04596,76.2089Q147.33541,75.3999,147.66422,74.6061Q147.99302,73.8123,148.36037,73.0356Q148.72773,72.2589,149.13276,71.50110000000001Q149.53778,70.74340000000001,149.9795,70.0064Q150.42122,69.2694,150.89856,68.555Q151.37591,67.8406,151.88774,67.1505Q152.39956,66.46039999999999,152.94463,65.7962Q153.48971,65.1321,154.06671,64.4954Q154.64371,63.8588,155.25130000000001,63.2513Q155.8588,62.64371,156.4954,62.06671Q157.1321,61.48971,157.7962,60.944630000000004Q158.4604,60.39956,159.1505,59.88774Q159.8406,59.37591,160.555,58.89856Q161.2694,58.42122,162.00639999999999,57.9795Q162.7434,57.53778,163.5011,57.13276Q164.2589,56.72773,165.0356,56.36037Q165.8123,55.99302,166.6061,55.66422Q167.3999,55.33541,168.2089,55.04596Q169.0178,54.7565,169.84,54.50709Q170.66219999999998,54.25767,171.4957,54.04891Q172.3291,53.840137,173.1718,53.672515Q174.0145,53.504893,174.8644,53.378822Q175.7143,53.252751,176.5694,53.168535Q177.4245,53.084318,178.2826,53.042159Q179.1408,53,180,53L332.303,53Q333.16200000000003,53,334.02,53.042159Q334.878,53.084318,335.733,53.168535Q336.58799999999997,53.252751,337.438,53.378822Q338.288,53.504893,339.131,53.672515Q339.973,53.840137,340.807,54.04891Q341.64,54.25767,342.46299999999997,54.50709Q343.28499999999997,54.7565,344.094,55.04596Q344.903,55.33541,345.697,55.66422Q346.49,55.99302,347.267,56.36037Q348.044,56.72773,348.802,57.13276Q349.55899999999997,57.53778,350.296,57.9795Q351.033,58.42122,351.748,58.89856Q352.462,59.37591,353.152,59.88774Q353.842,60.39956,354.506,60.944630000000004Q355.171,61.48971,355.807,62.06671Q356.44399999999996,62.64371,357.051,63.2513Q357.659,63.8588,358.236,64.4954Q358.813,65.1321,359.358,65.7962Q359.903,66.46039999999999,360.41499999999996,67.1505Q360.927,67.8406,361.404,68.555Q361.881,69.2694,362.323,70.0064Q362.765,70.74340000000001,363.16999999999996,71.50110000000001Q363.575,72.2589,363.942,73.0356Q364.31,73.8123,364.63800000000003,74.6061Q364.967,75.3999,365.257,76.2089Q365.546,77.0178,365.796,77.84Q366.04499999999996,78.6622,366.254,79.4957Q366.46299999999997,80.3291,366.63,81.1718Q366.798,82.0145,366.924,82.8644Q367.05,83.71430000000001,367.134,84.5694Q367.21799999999996,85.4245,367.26,86.2826Q367.303,87.1408,367.303,88L367.303,328Q367.303,328.859,367.26,329.717Q367.21799999999996,330.576,367.134,331.431Q367.05,332.286,366.924,333.136Q366.798,333.985,366.63,334.828Q366.46299999999997,335.671,366.254,336.504Q366.04499999999996,337.338,365.796,338.16Q365.546,338.982,365.257,339.791Q364.967,340.6,364.63800000000003,341.394Q364.31,342.188,363.942,342.964Q363.575,343.741,363.16999999999996,344.499Q362.765,345.257,362.323,345.994Q361.881,346.731,361.404,347.445Q360.927,348.159,360.41499999999996,348.849Q359.903,349.54,359.358,350.204Q358.813,350.868,358.236,351.505Q357.659,352.141,357.051,352.749Q356.44399999999996,353.356,355.807,353.933Q355.171,354.51,354.506,355.055Q353.842,355.6,353.152,356.112Q352.462,356.624,351.748,357.101Q351.033,357.579,350.296,358.02Q349.55899999999997,358.462,348.802,358.867Q348.044,359.272,347.267,359.64Q346.49,360.007,345.697,360.336Q344.903,360.665,344.094,360.954Q343.28499999999997,361.243,342.46299999999997,361.493Q341.64,361.742,340.807,361.951Q339.973,362.16,339.131,362.327Q338.288,362.495,337.438,362.621Q336.58799999999997,362.747,335.733,362.831Q334.878,362.916,334.02,362.958Q333.16200000000003,363,332.303,363L180,363Q179.1408,363,178.2826,362.958Q177.4245,362.916,176.5694,362.831Q175.7143,362.747,174.8644,362.621Q174.0145,362.495,173.1718,362.327Q172.3291,362.16,171.4957,361.951Q170.66219999999998,361.742,169.84,361.493Q169.0178,361.243,168.2089,360.954Q167.3999,360.665,166.6061,360.336Q165.8123,360.007,165.0356,359.64Q164.2589,359.272,163.5011,358.867Q162.7434,358.462,162.00639999999999,358.02Q161.2694,357.579,160.555,357.101Q159.8406,356.624,159.1505,356.112Q158.4604,355.6,157.7962,355.055Q157.1321,354.51,156.4954,353.933Q155.8588,353.356,155.25130000000001,352.749Q154.64371,352.141,154.06671,351.505Q153.48971,350.868,152.94463,350.204Q152.39956,349.54,151.88774,348.849Q151.37591,348.159,150.89856,347.445Q150.42122,346.731,149.9795,345.994Q149.53778,345.257,149.13276,344.499Q148.72773,343.741,148.36037,342.964Q147.99302,342.188,147.66422,341.394Q147.33541,340.6,147.04596,339.791Q146.7565,338.982,146.50709,338.16Q146.25767,337.338,146.04891,336.504Q145.840137,335.671,145.672515,334.828Q145.504893,333.985,145.378822,333.136Q145.252751,332.286,145.168535,331.431Q145.084318,330.576,145.042159,329.717Q145,328.859,145,328Z" fill="url(#master_svg6_1_007)" fill-opacity="1"/></g><g><path d="M283.7508803527832,258.91014282226564L314.9445803527832,165.32835282226563C316.2365803527832,161.63675282226563,314.3905803527832,159.05264282226562,310.3305803527832,159.05264282226562L286.3349803527832,159.05264282226562C283.1971803527832,159.05264282226562,281.16678035278323,160.52928282226563,280.0591803527832,163.48255282226563L258.6480803527832,224.57844282226563C257.5405803527832,227.90084282226564,254.9563803527832,227.90084282226564,253.8489803527832,224.57844282226563L233.5451803527832,163.66714282226562C232.6222803527832,160.7138628222656,230.4073803527832,159.05264282226562,227.2694803527832,159.05264282226562L201.7975203527832,159.05264282226562C197.3676133527832,159.05264282226562,195.7064003527832,162.00592282226563,198.1059303527832,165.69751282226562L199.7671503527832,168.28162282226563C200.6900503527832,169.57364282226564,201.2437803527832,170.86574282226562,201.7975203527832,172.34234282226564L231.1456803527832,259.09464282226566C232.06858035278321,262.04764282226563,234.2835803527832,263.5246428222656,237.42138035278322,263.5246428222656L277.4751803527832,263.5246428222656C280.6129803527832,263.5246428222656,282.8279803527832,261.86364282226566,283.7508803527832,258.91014282226564Z" fill="#00B9C8" fill-opacity="1"/></g><g><rect x="230.6579132080078" y="65.23684406280518" width="50.98683547973633" height="8.157893180847168" rx="4.078946590423584" fill="#05AACB" fill-opacity="1"/></g></g></g></svg>